{"title":"Killing.Season.2013.WEB-DLRip.XviD.AC3.1400MB-TST","uid":8692354,"size":1465161728,"categoryP":"video","categoryS":"movies","magnet":"?xt=urn:btih:570549e3e0273623565d915acf678c77ef43882c&amp;dn=Killing.Season.2013.WEB-DLRip.XviD.AC3.1400MB-TST&amp;tr=udp%3A%2F%2Ftracker.openbittorrent.com%3A80&amp;tr=udp%3A%2F%2Fopen.demonii.com%3A1337&amp;tr=udp%3A%2F%2Ftracker.coppersurfer.tk%3A6969&amp;tr=udp%3A%2F%2Fexodus.desync.com%3A6969","seeders":1,"leechers":0,"uploader":"Helliod","files":1,"time":1373906457,"description":"][center][IMG]http://lookpic.com/O/i2/1659/2SOF6JwM.jpeg[/IMG][/center]\n\n\n******************************************************************************************************\n\n** Killing.Season.2013.WEB-DLRip.XviD.AC3.1400MB-TST**\n\n******************************************************************************************************\n\nEncoder ..........: Ciumac @ TST\nVideo Codec.......: XviD\nVideo Bitrate.....: 1759\nAudio Codec.......: AC3 Dolby Digital\nAudio Bitrate.....: 384 kbs, 6 channels\nResolution........: 720X304, 23.976 fps\nRuntime...........:  01:30:44.447 (130536 frames)\nLanguage..........: English\nSubtitles.........: n/a\nIMDB Rating.......: 5.3 / 10\nIMDb URL..........: http://www.imdb.com/title/tt1480295/\nSource...........: Killing.Season.2013.720p.WEB-DL.H264-PublicHD\n\n[b]_______________________________________________________________________________[/b]\n\n\n[b][color=red]General[/b][/color]\nComplete name                            : Killing.Season.2013.WEB-DLRip.XviD.AC3.1400MB-TST.avi\nFormat                                   : AVI\nFormat/Info                              : Audio Video Interleave\nFile size                                : 1.36 GiB\nDuration                                 : 1h 30mn\nOverall bit rate                         : 2 153 Kbps\nWriting application                      : VirtualDubMod 1.5.10.2 (build 2540/release)\nWriting library                          : VirtualDubMod build 2540/release\n\n[b]_______________________________________________________________________________[/b]\n\n[b][color=red]Video[/b][/color]\nID                                       : 0\nFormat                                   : MPEG-4 Visual\nFormat profile                           : Advanced Simple@L5\nFormat settings, BVOP                    : 1\nFormat settings, QPel                    : No\nFormat settings, GMC                     : No warppoints\nFormat settings, Matrix                  : Default (MPEG)\nCodec ID                                 : XVID\nCodec ID/Hint                            : XviD\nDuration                                 : 1h 30mn\nBit rate                                 : 1 760 Kbps\nWidth                                    : 720 pixels\nHeight                                   : 304 pixels\nDisplay aspect ratio                     : 2.35:1\nFrame rate                               : 23.976 fps\nColor space                              : YUV\nChroma subsampling                       : 4:2:0\nBit depth                                : 8 bits\nScan type                                : Progressive\nCompression mode                         : Lossy\nBits/(Pixel*Frame)                       : 0.335\nStream size                              : 1.12 GiB (82%)\nWriting library                          : XviD 1.2.1 (UTC 2008-12-04)\n\n[b]_______________________________________________________________________________[/b]\n\n[b][color=red]Audio[/b][/color]\nID                                       : 1\nFormat                                   : AC-3\nFormat/Info                              : Audio Coding 3\nMode extension                           : CM (complete main)\nCodec ID                                 : 2000\nDuration                                 : 1h 30mn\nBit rate mode                            : Constant\nBit rate                                 : 384 Kbps\nChannel(s)                               : 6 channels\nChannel positions                        : Front: L C R, Side: L R, LFE\nSampling rate                            : 48.0 KHz\nBit depth                                : 16 bits\nCompression mode                         : Lossy\nStream size                              : 249 MiB (18%)\nAlignment                                : Split accross interleaves\nInterleave, duration                     : 42 ms (1.00 video frame)\nInterleave, preload duration             : 500 ms\n\n[b]_______________________________________________________________________________[/b]\n\n\n[b][color=red]Plot:[/b][/color]\nTwo veterans of the Bosnian War -- one American, one Serbian -- find their unlikely friendship turn tense with one of them reveals their true intentions.\n\n[b]_______________________________________________________________________________[/b]\n\n[b][color=red]Cast:[/b][/color]\n\nDirector: Mark Steven Johnson\nWriter: Evan Daugherty\nStars: Robert De Niro, John Travolta, Milo Ventimiglia\n[b]_______________________________________________________________________________[/b]\n\n[b][color=red]Screens:[/b][/color]\n\n[img]http://lookpic.com/O/i2/769/kXgbl5e7.png[/img]\n\n[img]http://lookpic.com/O/i2/1912/IZ37CVlT.png[/img]\n\n[img]http://lookpic.com/O/i2/1601/NgSdyOSB.png[/img]\n\n[img]http://lookpic.com/O/i2/1318/KlN9BCwr.png[/img]\n\n[img]http://lookpic.com/O/i2/1608/cmWduy78.png[/img]","torrent":{"xt":"urn:btih:570549e3e0273623565d915acf678c77ef43882c","amp;dn":"Killing.Season.2013.WEB-DLRip.XviD.AC3.1400MB-TST","amp;tr":["udp%3A%2F%2Ftracker.openbittorrent.com%3A80","udp%3A%2F%2Fopen.demonii.com%3A1337","udp%3A%2F%2Ftracker.coppersurfer.tk%3A6969","udp%3A%2F%2Fexodus.desync.com%3A6969"],"infoHash":"570549e3e0273623565d915acf678c77ef43882c","infoHashBuffer":{"type":"Buffer","data":[87,5,73,227,224,39,54,35,86,93,145,90,207,103,140,119,239,67,136,44]},"announce":[],"urlList":[]}}